 <svg width="65" height="64" viewBox="0 0 65 64" fill="none" xmlns="http://www.w3.org/2000/svg">
  <path d="M43.7001 17.6001H21.3001C19.5328 17.6001 18.1001 19.0328 18.1001 20.8001V43.2001C18.1001 44.9674 19.5328 46.4001 21.3001 46.4001H43.7001C45.4674 46.4001 46.9001 44.9674 46.9001 43.2001V20.8001C46.9001 19.0328 45.4674 17.6001 43.7001 17.6001Z" stroke="#2EDBE3" strokeWidth="3" strokeLinecap="round" strokeLinejoin="round"/>
  <path d="M26.9 28.8C28.2255 28.8 29.3 27.7255 29.3 26.4C29.3 25.0745 28.2255 24 26.9 24C25.5745 24 24.5 25.0745 24.5 26.4C24.5 27.7255 25.5745 28.8 26.9 28.8Z" stroke="#2EDBE3" strokeWidth="3" strokeLinecap="round" strokeLinejoin="round"/>
  <path d="M46.8998 36.7998L38.8998 28.7998L21.2998 46.3998" stroke="#2EDBE3" strokeWidth="3" strokeLinecap="round" strokeLinejoin="round"/>
  </svg>
