<svg width="33" height="32" viewBox="0 0 33 32" fill="none" xmlns="http://www.w3.org/2000/svg">
<path d="M27.6996 1.59961H5.29961C3.5323 1.59961 2.09961 3.0323 2.09961 4.79961V27.1996C2.09961 28.9669 3.5323 30.3996 5.29961 30.3996H27.6996C29.4669 30.3996 30.8996 28.9669 30.8996 27.1996V4.79961C30.8996 3.0323 29.4669 1.59961 27.6996 1.59961Z" stroke="#2EDBE3" stroke-width="3" stroke-linecap="round" stroke-linejoin="round"/>
<path d="M10.9 12.8C12.2255 12.8 13.3 11.7255 13.3 10.4C13.3 9.07452 12.2255 8 10.9 8C9.57452 8 8.5 9.07452 8.5 10.4C8.5 11.7255 9.57452 12.8 10.9 12.8Z" stroke="#2EDBE3" stroke-width="3" stroke-linecap="round" stroke-linejoin="round"/>
<path d="M30.8998 20.7998L22.8998 12.7998L5.2998 30.3998" stroke="#2EDBE3" stroke-width="3" stroke-linecap="round" stroke-linejoin="round"/>
</svg>
