<svg width="65" height="64" viewBox="0 0 65 64" fill="none" xmlns="http://www.w3.org/2000/svg">
  <path d="M44.9444 31.2222V25C44.9444 21.9931 42.5069 19.5556 39.5 19.5556H25.5C22.4931 19.5556 20.0556 21.9931 20.0556 25V39C20.0556 42.0069 22.4931 44.4444 25.5 44.4444H33.2778C34.5664 44.4444 35.6111 43.3998 35.6111 42.1111V39C35.6111 35.9931 38.0487 33.5556 41.0556 33.5556H42.6111C43.8998 33.5556 44.9444 32.5109 44.9444 31.2222ZM44.8303 34.4162C44.201 34.8543 43.436 35.1111 42.6111 35.1111H41.0556C38.9078 35.1111 37.1667 36.8522 37.1667 39V42.1111C37.1667 42.768 37.0038 43.3869 36.7162 43.9295C40.9762 42.6175 44.1957 38.9316 44.8303 34.4162ZM25.5 18H39.5C43.366 18 46.5 21.134 46.5 25V32.7778C46.5 40.0802 40.5802 46 33.2778 46H25.5C21.634 46 18.5 42.866 18.5 39V25C18.5 21.134 21.634 18 25.5 18Z" stroke="#2EDBE3" strokeWidth="2"/>
  </svg>
