 <svg width="63" height="62" viewBox="0 0 63 62" fill="none" xmlns="http://www.w3.org/2000/svg">
  <path d="M21.5186 21.824L25.1026 32.384H17.9346L21.5186 21.824ZM16.8786 36.224H26.1586L27.4066 40H33.0386L25.4226 17.216H17.6146L9.96663 40H15.6306L16.8786 36.224ZM43.4164 36.416C40.9204 36.416 39.1284 34.464 39.1284 31.808C39.1284 29.152 40.9204 27.2 43.4164 27.2C45.9124 27.2 47.7044 29.152 47.7044 31.808C47.7044 34.464 45.9124 36.416 43.4164 36.416ZM47.7364 25.888C46.4564 24.064 44.5044 22.976 42.1684 22.976C37.5604 22.976 34.3284 26.624 34.3284 31.808C34.3284 36.992 37.5604 40.64 42.1684 40.64C44.5044 40.64 46.4564 39.552 47.7364 37.728V40H52.5364V23.616H47.7364V25.888Z" fill="#2EDBE3"/>
  </svg>
