<svg width="44" height="24" viewBox="0 0 44 24" fill="none" xmlns="http://www.w3.org/2000/svg">
<path d="M12.5186 4.824L16.1026 15.384H8.93463L12.5186 4.824ZM7.87863 19.224H17.1586L18.4066 23H24.0386L16.4226 0.216H8.61462L0.966625 23H6.63063L7.87863 19.224ZM34.4164 19.416C31.9204 19.416 30.1284 17.464 30.1284 14.808C30.1284 12.152 31.9204 10.2 34.4164 10.2C36.9124 10.2 38.7044 12.152 38.7044 14.808C38.7044 17.464 36.9124 19.416 34.4164 19.416ZM38.7364 8.888C37.4564 7.064 35.5044 5.976 33.1684 5.976C28.5604 5.976 25.3284 9.624 25.3284 14.808C25.3284 19.992 28.5604 23.64 33.1684 23.64C35.5044 23.64 37.4564 22.552 38.7364 20.728V23H43.5364V6.616H38.7364V8.888Z" fill="#2EDBE3"/>
</svg>
