<svg width="24" height="24" viewBox="0 0 24 24" fill="none" xmlns="http://www.w3.org/2000/svg">
<path d="M12 24C18.6274 24 24 18.6274 24 12C24 5.37258 18.6274 0 12 0C5.37258 0 0 5.37258 0 12C0 18.6274 5.37258 24 12 24Z" fill="#2EDBE3"/>
<path d="M12.7346 8.20188C11.95 8.16542 11.1678 8.31223 10.4522 8.63028V5.93227C10.4522 5.81762 10.4058 5.70768 10.3233 5.62661C10.2408 5.54554 10.1289 5.5 10.0122 5.5H7.94074C7.82398 5.5 7.712 5.54552 7.62937 5.62656C7.54674 5.70761 7.50021 5.81755 7.5 5.93227V17.5626C7.5 17.6774 7.54643 17.7876 7.62909 17.8688C7.71174 17.95 7.82385 17.9956 7.94074 17.9956H10.0138C10.1305 17.9954 10.2424 17.9497 10.3249 17.8685C10.4074 17.7873 10.4537 17.6773 10.4537 17.5626C11.123 17.8608 11.8511 18.01 12.586 17.9995C13.3208 17.989 14.0442 17.819 14.7043 17.5017C15.3645 17.1845 15.9451 16.7278 16.4047 16.1643C16.8643 15.6009 17.1914 14.9445 17.3627 14.2424C17.534 13.5402 17.5452 12.8095 17.3955 12.1025C17.2458 11.3956 16.939 10.7299 16.4969 10.1531C16.0548 9.57629 15.4884 9.10261 14.8383 8.76596C14.1881 8.42931 13.4703 8.23801 12.7361 8.20575L12.7346 8.20188ZM12.4985 15.0935C12.0966 15.0924 11.7041 14.9743 11.3705 14.7542C11.037 14.5341 10.7772 14.2217 10.6242 13.8567C10.4712 13.4916 10.4317 13.0902 10.5108 12.7031C10.5899 12.316 10.7839 11.9606 11.0684 11.6818C11.353 11.403 11.7152 11.2133 12.1094 11.1366C12.5036 11.06 12.9121 11.0999 13.2832 11.2512C13.6543 11.4025 13.9715 11.6585 14.1947 11.9869C14.4178 12.3153 14.5369 12.7012 14.5369 13.096C14.5367 13.6257 14.3224 14.1337 13.9412 14.5082C13.56 14.8827 13.0431 15.0932 12.504 15.0935H12.4985Z" fill="#323237"/>
</svg>
