<svg width="18" height="18" viewBox="0 0 18 18" fill="none" xmlns="http://www.w3.org/2000/svg">
<path d="M14.5998 1.7998H3.3998C2.51615 1.7998 1.7998 2.51615 1.7998 3.3998V14.5998C1.7998 15.4835 2.51615 16.1998 3.3998 16.1998H14.5998C15.4835 16.1998 16.1998 15.4835 16.1998 14.5998V3.3998C16.1998 2.51615 15.4835 1.7998 14.5998 1.7998Z" stroke="#2EDBE3" stroke-width="2" stroke-linecap="round" stroke-linejoin="round"/>
<path d="M6.2 7.4C6.86274 7.4 7.4 6.86274 7.4 6.2C7.4 5.53726 6.86274 5 6.2 5C5.53726 5 5 5.53726 5 6.2C5 6.86274 5.53726 7.4 6.2 7.4Z" stroke="#2EDBE3" stroke-width="2" stroke-linecap="round" stroke-linejoin="round"/>
<path d="M16.2004 11.4004L12.2004 7.40039L3.40039 16.2004" stroke="#2EDBE3" stroke-width="2" stroke-linecap="round" stroke-linejoin="round"/>
</svg>
