   <svg width="100" height="22" viewBox="0 0 100 22" fill="none" xmlns="http://www.w3.org/2000/svg">
  <g clipPath="url(#clip0_1004_6934)">
  <path d="M27.9798 0C26.2257 0 24.511 0.505923 23.0525 1.45379C21.594 2.40166 20.4572 3.7489 19.786 5.32515C19.1147 6.9014 18.939 8.63586 19.2813 10.3092C19.6235 11.9825 20.4682 13.5196 21.7085 14.726C22.9489 15.9324 24.5292 16.754 26.2496 17.0868C27.97 17.4197 29.7533 17.2488 31.3739 16.5959C32.9945 15.943 34.3796 14.8374 35.3542 13.4188C36.3287 12.0002 36.8488 10.3324 36.8488 8.62629C36.8488 6.33845 35.9144 4.14432 34.2512 2.52658C32.5879 0.908839 30.3321 0 27.9798 0V0ZM27.9798 12.1424C27.2648 12.1416 26.566 11.9346 25.9719 11.5477C25.3777 11.1607 24.9149 10.6111 24.6419 9.96831C24.3688 9.32553 24.2978 8.61844 24.4379 7.93644C24.5779 7.25443 24.9227 6.62811 25.4287 6.13667C25.9347 5.64524 26.5791 5.31073 27.2805 5.17545C27.9819 5.04017 28.7088 5.11018 29.3692 5.37664C30.0297 5.6431 30.5942 6.09405 30.9912 6.67246C31.3882 7.25088 31.6 7.93081 31.5998 8.62629C31.5998 9.08844 31.5062 9.54605 31.3242 9.97295C31.1422 10.3999 30.8755 10.7877 30.5393 11.1142C30.2031 11.4408 29.804 11.6997 29.3648 11.8761C28.9256 12.0525 28.455 12.143 27.9798 12.1424Z" fill="#3D3D3D"/>
  <path d="M47.0599 4.74268C45.3058 4.74268 43.5911 5.2486 42.1326 6.19647C40.6741 7.14434 39.5373 8.49158 38.866 10.0678C38.1948 11.6441 38.0191 13.3785 38.3613 15.0519C38.7035 16.7252 39.5482 18.2623 40.7886 19.4687C42.0289 20.6751 43.6092 21.4967 45.3297 21.8295C47.0501 22.1623 48.8333 21.9915 50.4539 21.3386C52.0745 20.6857 53.4597 19.5801 54.4342 18.1615C55.4088 16.7429 55.9289 15.0751 55.9289 13.369C55.9289 11.0811 54.9945 8.887 53.3313 7.26926C51.668 5.65151 49.4121 4.74268 47.0599 4.74268ZM47.0599 16.885C46.3447 16.8852 45.6454 16.6791 45.0506 16.2927C44.4558 15.9063 43.9922 15.3571 43.7184 14.7144C43.4446 14.0717 43.3729 13.3644 43.5124 12.6821C43.6518 11.9998 43.9963 11.373 44.502 10.8811C45.0078 10.3891 45.6522 10.0542 46.3537 9.91848C47.0553 9.7828 47.7824 9.85254 48.4432 10.1189C49.1039 10.3852 49.6687 10.8361 50.0659 11.4146C50.4632 11.9932 50.6751 12.6733 50.6749 13.369C50.6747 14.3014 50.2937 15.1956 49.6158 15.8549C48.9379 16.5143 48.0186 16.8848 47.0599 16.885Z" fill="#3D3D3D"/>
  <path d="M9.313 4.75715C7.91749 4.69353 6.52629 4.95183 5.253 5.51094V0.761572C5.253 0.559591 5.17051 0.365882 5.02366 0.223059C4.87682 0.0802368 4.67766 0 4.47 0H0.783C0.575417 0.000257365 0.376411 0.0805769 0.229628 0.223344C0.082844 0.36611 0.000264606 0.55967 0 0.761572L0 21.2384C0.000264606 21.4403 0.082844 21.6339 0.229628 21.7767C0.376411 21.9194 0.575417 21.9997 0.783 22H4.47C4.67766 22 4.87682 21.9198 5.02366 21.7769C5.17051 21.6341 5.253 21.4404 5.253 21.2384C6.61803 21.8371 8.1167 22.09 9.60929 21.9733C11.1019 21.8567 12.5398 21.3743 13.7891 20.5713C15.0383 19.7683 16.0581 18.6707 16.7535 17.3808C17.4489 16.091 17.7972 14.6509 17.766 13.1947C17.672 8.67978 13.95 4.96043 9.313 4.75715ZM8.9 16.8908C8.18478 16.8909 7.48557 16.6848 6.89079 16.2985C6.29601 15.9122 5.83238 15.3629 5.55854 14.7203C5.2847 14.0777 5.21295 13.3705 5.35236 12.6882C5.49177 12.0059 5.83608 11.3791 6.34175 10.8871C6.84741 10.3952 7.49172 10.0601 8.19318 9.92432C8.89465 9.78853 9.62176 9.85813 10.2826 10.1243C10.9433 10.3905 11.5081 10.8413 11.9055 11.4196C12.3029 11.998 12.515 12.6781 12.515 13.3737C12.515 14.3063 12.1342 15.2007 11.4563 15.8603C10.7783 16.5198 9.85885 16.8905 8.9 16.8908Z" fill="#3D3D3D"/>
  <path d="M75.426 4.73746C73.5701 4.7135 71.77 5.35469 70.369 6.53878C68.968 5.35469 67.1679 4.7135 65.312 4.73746C61.137 4.78707 57.812 8.16794 57.812 12.2267V21.2353C57.8123 21.4373 57.895 21.6311 58.042 21.7738C58.189 21.9166 58.3883 21.9968 58.596 21.9968H62.296C62.5036 21.9966 62.7026 21.9163 62.8494 21.7735C62.9962 21.6307 63.0787 21.4372 63.079 21.2353V12.1801C63.079 10.9536 64.057 9.90896 65.317 9.86227C65.6299 9.8509 65.9419 9.90098 66.2345 10.0095C66.527 10.1181 66.7941 10.2828 67.0197 10.494C67.2453 10.7052 67.4248 10.9584 67.5475 11.2386C67.6703 11.5187 67.7337 11.8201 67.734 12.1246V21.2382C67.7343 21.4401 67.8169 21.6337 67.9636 21.7764C68.1104 21.9192 68.3094 21.9995 68.517 21.9998H72.217C72.4246 21.9995 72.6236 21.9192 72.7704 21.7764C72.9172 21.6337 72.9998 21.4401 73 21.2382V12.1801C73 10.9536 73.978 9.90896 75.238 9.86227C75.5509 9.8509 75.8629 9.90098 76.1555 10.0095C76.448 10.1181 76.7151 10.2828 76.9407 10.494C77.1663 10.7052 77.3458 10.9584 77.4685 11.2386C77.5913 11.5187 77.6547 11.8201 77.655 12.1246V21.2382C77.6553 21.4401 77.7379 21.6337 77.8846 21.7764C78.0314 21.9192 78.2304 21.9995 78.438 21.9998H82.138C82.3458 21.9998 82.545 21.9196 82.692 21.7768C82.839 21.634 82.9217 21.4403 82.922 21.2382V12.2297C82.926 8.16989 79.6 4.78707 75.426 4.73746Z" fill="#3D3D3D"/>
  <path d="M92.3471 0.000166452C88.1591 0.0303181 84.8091 3.40438 84.8091 7.48069V10.2332V15.3435V21.2386C84.8093 21.4407 84.8921 21.6344 85.0391 21.7772C85.1861 21.92 85.3853 22.0002 85.5931 22.0002H89.2931C89.5007 21.9999 89.6997 21.9196 89.8465 21.7768C89.9932 21.6341 90.0758 21.4405 90.0761 21.2386V15.3435H93.9481C94.1557 15.3432 94.3547 15.2629 94.5015 15.1201C94.6482 14.9774 94.7308 14.7838 94.7311 14.5819V10.9958C94.7311 10.7937 94.6486 10.5999 94.5018 10.4569C94.355 10.314 94.1558 10.2335 93.9481 10.2332H90.0771V7.44373C90.0771 6.21724 91.0551 5.17166 92.3151 5.12595C92.6283 5.11442 92.9408 5.16453 93.2336 5.27326C93.5265 5.382 93.7938 5.54711 94.0195 5.75873C94.2452 5.97034 94.4246 6.22409 94.5471 6.50477C94.6695 6.78545 94.7324 7.08728 94.7321 7.39218V7.86877C94.7321 8.07084 94.8145 8.26465 94.9614 8.40763C95.1082 8.55061 95.3073 8.63106 95.5151 8.63132H99.2151C99.4228 8.63106 99.622 8.55061 99.7688 8.40763C99.9156 8.26465 99.9981 8.07084 99.9981 7.86877V7.39218C99.9981 6.41726 99.7998 5.45196 99.4147 4.55188C99.0296 3.65179 98.4652 2.83469 97.7541 2.14762C97.043 1.46056 96.1991 0.917102 95.2711 0.548549C94.3432 0.179995 93.3494 -0.00637578 92.3471 0.000166452Z" fill="#3D3D3D"/>
  </g>
  <defs>
  <clipPath id="clip0_1004_6934">
  <rect width="100" height="22" fill="white"/>
  </clipPath>
  </defs>
  </svg>

