<svg width="21" height="21" viewBox="0 0 21 21" fill="none" xmlns="http://www.w3.org/2000/svg">
<path d="M15.2222 4H2.77778C1.79594 4 1 4.79594 1 5.77778V18.2222C1 19.2041 1.79594 20 2.77778 20H15.2222C16.2041 20 17 19.2041 17 18.2222V5.77778C17 4.79594 16.2041 4 15.2222 4Z" stroke="#3D3D3D" stroke-width="2" stroke-linecap="round" stroke-linejoin="round"/>
<path d="M18.2222 1H5.77778C4.79594 1 4 1.79594 4 2.77778V15.2222C4 16.2041 4.79594 17 5.77778 17H18.2222C19.2041 17 20 16.2041 20 15.2222V2.77778C20 1.79594 19.2041 1 18.2222 1Z" fill="white" stroke="#3D3D3D" stroke-width="2" stroke-linecap="round" stroke-linejoin="round"/>
<path d="M8.5 7C9.32843 7 10 6.32843 10 5.5C10 4.67157 9.32843 4 8.5 4C7.67157 4 7 4.67157 7 5.5C7 6.32843 7.67157 7 8.5 7Z" stroke="#3D3D3D" stroke-width="2" stroke-linecap="round" stroke-linejoin="round"/>
<path d="M20 11.5455L15.3125 7L5 17" stroke="#3D3D3D" stroke-width="2" stroke-linecap="round" stroke-linejoin="round"/>
</svg>
