<svg width="16" height="16" viewBox="4.5 4.5 25 25" fill="none" xmlns="http://www.w3.org/2000/svg">
<g filter="url(#filter0_dd_1461_12977)">
<path d="M8.48542 8.48528C13.1717 3.79899 20.7697 3.79899 25.456 8.48528C30.1423 13.1716 30.1423 20.7696 25.456 25.4558C20.7697 30.1421 13.1717 30.1421 8.48542 25.4558C3.79913 20.7696 3.79913 13.1716 8.48542 8.48528Z" fill="#0A74FF"/>
<path d="M16.4077 11.8767L14.7107 13.5738L16.4077 15.2708" stroke="white" stroke-linecap="round" stroke-linejoin="round"/>
<path d="M14.0064 15.6978C13.6693 16.4018 13.5701 17.1962 13.7237 17.9614C13.8773 18.7267 14.2755 19.4213 14.8582 19.9405C15.4409 20.4598 16.1765 20.7756 16.9543 20.8405C17.7321 20.9053 18.5099 20.7155 19.1706 20.2999C19.8312 19.8842 20.3388 19.2651 20.6169 18.5358C20.8951 17.8066 20.9287 17.0066 20.7127 16.2566C20.4967 15.5066 20.0428 14.8471 19.4194 14.3775C18.796 13.9079 18.0368 13.6536 17.2563 13.6529L14.7107 13.5737" stroke="white" stroke-linecap="round" stroke-linejoin="round"/>
</g>
<defs>
<filter id="filter0_dd_1461_12977" x="-2" y="-1.5" width="37.9414" height="37.9412" filterUnits="userSpaceOnUse" color-interpolation-filters="sRGB">
<feFlood flood-opacity="0" result="BackgroundImageFix"/>
<feColorMatrix in="SourceAlpha" type="matrix" values="0 0 0 0 0 0 0 0 0 0 0 0 0 0 0 0 0 0 127 0" result="hardAlpha"/>
<feOffset dy="0.5"/>
<feGaussianBlur stdDeviation="1"/>
<feColorMatrix type="matrix" values="0 0 0 0 0.376471 0 0 0 0 0.380392 0 0 0 0 0.439216 0 0 0 0.16 0"/>
<feBlend mode="normal" in2="BackgroundImageFix" result="effect1_dropShadow_1461_12977"/>
<feColorMatrix in="SourceAlpha" type="matrix" values="0 0 0 0 0 0 0 0 0 0 0 0 0 0 0 0 0 0 127 0" result="hardAlpha"/>
<feOffset/>
<feGaussianBlur stdDeviation="0.5"/>
<feColorMatrix type="matrix" values="0 0 0 0 0.156863 0 0 0 0 0.160784 0 0 0 0 0.239216 0 0 0 0.08 0"/>
<feBlend mode="normal" in2="effect1_dropShadow_1461_12977" result="effect2_dropShadow_1461_12977"/>
<feBlend mode="normal" in="SourceGraphic" in2="effect2_dropShadow_1461_12977" result="shape"/>
</filter>
</defs>
</svg>
