<svg width="18" height="18" viewBox="0 0 18 18" fill="none" xmlns="http://www.w3.org/2000/svg">
<path d="M1.7998 4.2002H3.3998H16.1998" stroke="#2EDBE3" stroke-width="2" stroke-linecap="round" stroke-linejoin="round"/>
<path d="M5.80039 4.2V2.6C5.80039 2.17565 5.96896 1.76869 6.26902 1.46863C6.56908 1.16857 6.97604 1 7.40039 1H10.6004C11.0247 1 11.4317 1.16857 11.7318 1.46863C12.0318 1.76869 12.2004 2.17565 12.2004 2.6V4.2M14.6004 4.2V15.4C14.6004 15.8243 14.4318 16.2313 14.1318 16.5314C13.8317 16.8314 13.4247 17 13.0004 17H5.00039C4.57604 17 4.16908 16.8314 3.86902 16.5314C3.56896 16.2313 3.40039 15.8243 3.40039 15.4V4.2H14.6004Z" stroke="#2EDBE3" stroke-width="2" stroke-linecap="round" stroke-linejoin="round"/>
<path d="M7.40039 8.2002V13.0002" stroke="#2EDBE3" stroke-width="2" stroke-linecap="round" stroke-linejoin="round"/>
<path d="M10.5996 8.2002V13.0002" stroke="#2EDBE3" stroke-width="2" stroke-linecap="round" stroke-linejoin="round"/>
</svg>
