<svg width="20" height="18" viewBox="0 0 20 18" fill="none" xmlns="http://www.w3.org/2000/svg">
<path d="M13.2047 12.198L10.0047 8.99805L6.80469 12.198" stroke="#2EDBE3" stroke-width="2" stroke-linecap="round" stroke-linejoin="round"/>
<path d="M10.0039 8.99805V16.198" stroke="#2EDBE3" stroke-width="2" stroke-linecap="round" stroke-linejoin="round"/>
<path d="M16.7165 14.1101C17.4967 13.6847 18.1131 13.0116 18.4684 12.197C18.8236 11.3824 18.8974 10.4727 18.6782 9.61144C18.459 8.7502 17.9593 7.98649 17.2578 7.44084C16.5563 6.89519 15.6932 6.59867 14.8045 6.59808H13.7965C13.5543 5.66148 13.103 4.79195 12.4764 4.05488C11.8498 3.3178 11.0643 2.73236 10.1789 2.34257C9.29354 1.95277 8.3313 1.76877 7.36455 1.80439C6.39781 1.84001 5.45171 2.09432 4.5974 2.54822C3.74309 3.00211 3.00279 3.64377 2.43216 4.42495C1.86153 5.20613 1.47541 6.10651 1.30284 7.0584C1.13028 8.01029 1.17574 8.98891 1.43583 9.92069C1.69592 10.8525 2.16385 11.7132 2.80446 12.4381" stroke="#2EDBE3" stroke-width="2" stroke-linecap="round" stroke-linejoin="round"/>
<path d="M13.2047 12.198L10.0047 8.99805L6.80469 12.198" stroke="#2EDBE3" stroke-width="2" stroke-linecap="round" stroke-linejoin="round"/>
</svg>
